HIERARCHY
ROOT Hips
{
  OFFSET 5.84602e-005 68.8428 3.50346
  CHANNELS 6 Xposition Yposition Zposition Zrotation Xrotation Yrotation
  JOINT Spine
  {
    OFFSET 0 8.597 -4.6522
    CHANNELS 3 Zrotation Xrotation Yrotation
    JOINT Spine1
    {
      OFFSET 0 7.8454 0.4098
      CHANNELS 3 Zrotation Xrotation Yrotation
      JOINT Spine2
      {
        OFFSET 0 9.7078 -2.1609
        CHANNELS 3 Zrotation Xrotation Yrotation
        JOINT Neck
        {
          OFFSET 0 21.8761 -0.4549
          CHANNELS 3 Zrotation Xrotation Yrotation
          JOINT Head
          {
            OFFSET 0 12.3537 3.3602
            CHANNELS 3 Zrotation Xrotation Yrotation
            End Site
            {
              OFFSET 0.0001 18.9506 0.5657
            }
          }
        }
        JOINT LeftShoulder
        {
          OFFSET 2.2086 21.1115 7.2329
          CHANNELS 3 Zrotation Xrotation Yrotation
          JOINT LeftArm
          {
            OFFSET 13.1193 3.0282 -4.8998
            CHANNELS 3 Zrotation Xrotation Yrotation
            JOINT LeftForeArm
            {
              OFFSET 27.4081 -0.0973053 -0.2375
              CHANNELS 3 Zrotation Xrotation Yrotation
              JOINT LeftHand
              {
                OFFSET 22.8641 0.0662994 -0.1369
                CHANNELS 3 Zrotation Xrotation Yrotation
                JOINT LeftHandIndex1
                {
                  OFFSET 8.8614 0.775009 2.4612
                  CHANNELS 3 Zrotation Xrotation Yrotation
                  JOINT LeftHandIndex2
                  {
                    OFFSET 3.3146 -0.808304 0.5841
                    CHANNELS 3 Zrotation Xrotation Yrotation
                    JOINT LeftHandIndex3
                    {
                      OFFSET 2.2628 -0.552002 0.3989
                      CHANNELS 3 Zrotation Xrotation Yrotation
                      End Site
                      {
                        OFFSET 1.6102 -0.4807 0.2612
                      }
                    }
                  }
                }
                JOINT LeftHandMiddle1
                {
                  OFFSET 8.9937 0.895004 0.2143
                  CHANNELS 3 Zrotation Xrotation Yrotation
                  JOINT LeftHandMiddle2
                  {
                    OFFSET 4.0984 0.0113983 -0.0242
                    CHANNELS 3 Zrotation Xrotation Yrotation
                    JOINT LeftHandMiddle3
                    {
                      OFFSET 2.2716 0.00689697 -0.0138001
                      CHANNELS 3 Zrotation Xrotation Yrotation
                      End Site
                      {
                        OFFSET 2.0404 -0.1441 0.0027
                      }
                    }
                  }
                }
                JOINT LeftHandRing1
                {
                  OFFSET 8.5234 0.597198 -2.0164
                  CHANNELS 3 Zrotation Xrotation Yrotation
                  JOINT LeftHandRing2
                  {
                    OFFSET 3.7188 -0.188293 -0.2328
                    CHANNELS 3 Zrotation Xrotation Yrotation
                    JOINT LeftHandRing3
                    {
                      OFFSET 2.1191 -0.106598 -0.1332
                      CHANNELS 3 Zrotation Xrotation Yrotation
                      End Site
                      {
                        OFFSET 1.8737 -0.2304 -0.0886
                      }
                    }
                  }
                }
                JOINT LeftHandPinky1
                {
                  OFFSET 7.9094 -0.601089 -3.4825
                  CHANNELS 3 Zrotation Xrotation Yrotation
                  JOINT LeftHandPinky2
                  {
                    OFFSET 2.2874 -0.477005 -0.6314
                    CHANNELS 3 Zrotation Xrotation Yrotation
                    JOINT LeftHandPinky3
                    {
                      OFFSET 1.6774 -0.349396 -0.4633
                      CHANNELS 3 Zrotation Xrotation Yrotation
                      End Site
                      {
                        OFFSET 1.4888 -0.4091 -0.3416
                      }
                    }
                  }
                }
                JOINT LeftHandThumb1
                {
                  OFFSET 1.833 -1.3875 1.3896
                  CHANNELS 3 Zrotation Xrotation Yrotation
                  JOINT LeftHandThumb2
                  {
                    OFFSET 3.4129 -1.121 2.5732
                    CHANNELS 3 Zrotation Xrotation Yrotation
                    JOINT LeftHandThumb3
                    {
                      OFFSET 2.2474 -0.804199 1.6192
                      CHANNELS 3 Zrotation Xrotation Yrotation
                      End Site
                      {
                        OFFSET 1.6527 -0.5689 1.1317
                      }
                    }
                  }
                }
              }
            }
          }
        }
        JOINT RightShoulder
        {
          OFFSET -2.2086 21.1115 7.2329
          CHANNELS 3 Zrotation Xrotation Yrotation
          JOINT RightArm
          {
            OFFSET -13.1216 3.0287 -4.9007
            CHANNELS 3 Zrotation Xrotation Yrotation
            JOINT RightForeArm
            {
              OFFSET -27.4081 -0.0973053 -0.2375
              CHANNELS 3 Zrotation Xrotation Yrotation
              JOINT RightHand
              {
                OFFSET -22.8641 0.0664063 -0.1369
                CHANNELS 3 Zrotation Xrotation Yrotation
                JOINT RightHandIndex1
                {
                  OFFSET -8.8614 0.774994 2.4612
                  CHANNELS 3 Zrotation Xrotation Yrotation
                  JOINT RightHandIndex2
                  {
                    OFFSET -3.3146 -0.808304 0.5841
                    CHANNELS 3 Zrotation Xrotation Yrotation
                    JOINT RightHandIndex3
                    {
                      OFFSET -2.2628 -0.552002 0.3989
                      CHANNELS 3 Zrotation Xrotation Yrotation
                      End Site
                      {
                        OFFSET -1.6102 -0.4807 0.2612
                      }
                    }
                  }
                }
                JOINT RightHandMiddle1
                {
                  OFFSET -8.9937 0.894989 0.2143
                  CHANNELS 3 Zrotation Xrotation Yrotation
                  JOINT RightHandMiddle2
                  {
                    OFFSET -4.0984 0.0113983 -0.0242
                    CHANNELS 3 Zrotation Xrotation Yrotation
                    JOINT RightHandMiddle3
                    {
                      OFFSET -2.2716 0.00691223 -0.0138001
                      CHANNELS 3 Zrotation Xrotation Yrotation
                      End Site
                      {
                        OFFSET -2.0404 -0.1441 0.0027
                      }
                    }
                  }
                }
                JOINT RightHandRing1
                {
                  OFFSET -8.5234 0.597198 -2.0164
                  CHANNELS 3 Zrotation Xrotation Yrotation
                  JOINT RightHandRing2
                  {
                    OFFSET -3.7188 -0.188309 -0.2328
                    CHANNELS 3 Zrotation Xrotation Yrotation
                    JOINT RightHandRing3
                    {
                      OFFSET -2.1191 -0.106598 -0.1332
                      CHANNELS 3 Zrotation Xrotation Yrotation
                      End Site
                      {
                        OFFSET -1.8737 -0.2304 -0.0886
                      }
                    }
                  }
                }
                JOINT RightHandPinky1
                {
                  OFFSET -7.9094 -0.601105 -3.4825
                  CHANNELS 3 Zrotation Xrotation Yrotation
                  JOINT RightHandPinky2
                  {
                    OFFSET -2.2874 -0.477005 -0.6314
                    CHANNELS 3 Zrotation Xrotation Yrotation
                    JOINT RightHandPinky3
                    {
                      OFFSET -1.6774 -0.349396 -0.4633
                      CHANNELS 3 Zrotation Xrotation Yrotation
                      End Site
                      {
                        OFFSET -1.4888 -0.4091 -0.3416
                      }
                    }
                  }
                }
                JOINT RightHandThumb1
                {
                  OFFSET -1.833 -1.38751 1.3896
                  CHANNELS 3 Zrotation Xrotation Yrotation
                  JOINT RightHandThumb2
                  {
                    OFFSET -3.41299 -1.12099 2.5732
                    CHANNELS 3 Zrotation Xrotation Yrotation
                    JOINT RightHandThumb3
                    {
                      OFFSET -2.24741 -0.804108 1.6192
                      CHANNELS 3 Zrotation Xrotation Yrotation
                      End Site
                      {
                        OFFSET -1.6527 -0.5689 1.1317
                      }
                    }
                  }
                }
              }
            }
          }
        }
      }
    }
  }
  JOINT RightUpLeg
  {
    OFFSET -9.1966 3.8861 -0.7581
    CHANNELS 3 Zrotation Xrotation Yrotation
    JOINT RightLeg
    {
      OFFSET -0.7359 -41.0265 0
      CHANNELS 3 Zrotation Xrotation Yrotation
      JOINT RightFoot
      {
        OFFSET 0 -40.2855 0
        CHANNELS 3 Zrotation Xrotation Yrotation
        JOINT RightToeBase
        {
          OFFSET 0 -5.6122 11.7359
          CHANNELS 3 Zrotation Xrotation Yrotation
          End Site
          {
            OFFSET 0 0 7.8731
          }
        }
      }
    }
  }
  JOINT LeftUpLeg
  {
    OFFSET 9.1965 3.8864 -0.7581
    CHANNELS 3 Zrotation Xrotation Yrotation
    JOINT LeftLeg
    {
      OFFSET 0.7359 -41.0268 0
      CHANNELS 3 Zrotation Xrotation Yrotation
      JOINT LeftFoot
      {
        OFFSET 0 -40.2855 0
        CHANNELS 3 Zrotation Xrotation Yrotation
        JOINT LeftToeBase
        {
          OFFSET 0 -5.6122 11.7359
          CHANNELS 3 Zrotation Xrotation Yrotation
          End Site
          {
            OFFSET 0 0 7.8731
          }
        }
      }
    }
  }
}
MOTION
Frames:	6
Frame Time:	0.0333333
5.84602e-005 68.8428 3.50346 0 0 -0 0 0 -0 0 0 -0 0 0 -0 0 0 -0 0 0 -0 0 0 -0 0 0 -0 0 0 -0 0 0 -0 0 0 -0 0 0 -0 0 0 -0 0 0 -0 -0.0146107 -8.87603e-005 -2.63497e-007 2.99804e-018 -2.42657e-020 -1.42182e-022 0 0 -0 -0.0187562 -0.001176 5.858e-005 5.06224e-018 3.88251e-019 1.21329e-020 0 0 -0 -0.012269 -0.00324817 0.000675346 -1.74678e-018 3.88251e-019 -0 0 0 -0 0 0 -0 0 0 -0 0 0 -0 0 0 -0 0 0 -0 0 0 -0 0 0 -0 0 0 -0 0 0 -0 0 0 -0 0.0149955 -9.10982e-005 2.64101e-007 -9.69331e-018 1.21329e-020 -4.7394e-023 0 0 -0 0.0189956 -0.00119102 -5.96516e-005 -5.41541e-019 0 2.42657e-020 0 0 -0 0.0122698 -0.00324857 -0.000673756 -2.00796e-019 0 -1.94126e-019 0 0 -0 0 0 -0 0 0 -0 3.39842 1.33031 -0.0637918 -5.65207e-008 0.834868 -0.000436188 -3.39935 -2.16518 -0.0642563 -8.89002e-024 -1.18485e-023 -1.48106e-024 -3.39844 1.35642 0.0640283 -3.18788e-007 0.782166 -0.000588827 3.39931 -2.13858 0.0634662 1.1399e-023 0 -0 
-8.09341 1.92065 4.69064 -95.625 0 -0 2.14588 6.05856 -6.10047 4.97112 11.8475 -12.5277 4.97115 11.8475 -12.5277 9.71804 -2.09967 0.336411 0.0855744 15.823 -0.00821679 8.07845 -24.4667 27.3499 -69.7787 18.1629 -49.8888 -21.3203 0.140712 0.120211 -3.18055e-015 -9.54166e-015 9.54166e-015 7.06225e-031 -1.27222e-014 3.18055e-015 5.29669e-031 -9.54166e-015 3.18055e-015 -3.18055e-015 -6.36111e-015 1.27222e-014 7.06225e-031 -1.27222e-014 3.18055e-015 -0.0146294 -8.99149e-005 4.17809e-006 7.2863e-007 -1.19318e-006 -1.26257e-006 7.06225e-031 -1.27222e-014 3.18055e-015 -0.0187955 -0.00118466 6.16631e-005 7.28052e-007 -1.19329e-006 -1.26261e-006 7.06225e-031 -1.27222e-014 3.18055e-015 -0.0122972 -0.0032561 0.000679044 -6.36111e-015 9.54166e-015 6.36111e-015 7.06225e-031 -1.27222e-014 3.18055e-015 5.29669e-031 -9.54166e-015 3.18055e-015 -3.18055e-015 -6.36111e-015 1.27222e-014 -105.776 -54.3507 -168.983 -14.8674 -12.7581 -16.4075 30.4892 25.3082 -0.210508 31.2987 51.6975 -54.3845 -2.51193e-007 1.92412e-007 -2.0353e-006 -7.90496e-008 -1.52247e-008 7.00462e-008 -3.26912e-006 -1.4804e-007 -1.61899e-006 -2.51193e-007 1.92412e-007 -2.0353e-006 0.0149915 -9.24334e-005 -6.95912e-007 -3.26919e-006 -1.48252e-007 -1.61896e-006 -2.51193e-007 1.92412e-007 -2.0353e-006 0.0189927 -0.00118615 -5.98691e-005 -3.0629e-006 4.33362e-007 -1.36895e-006 -2.51193e-007 1.92412e-007 -2.0353e-006 0.0122595 -0.00324368 -0.000680368 -3.26922e-006 -1.48219e-007 -1.61887e-006 -2.51193e-007 1.92412e-007 -2.0353e-006 -7.90496e-008 -1.52247e-008 7.00462e-008 -3.26912e-006 -1.4804e-007 -1.61899e-006 -8.03513 -17.8459 0.147476 61.5487 20.097 -87.9209 11.9383 36.1368 14.1703 1.44769e-007 -1.89154e-006 -2.12941e-007 6.10831 6.75742 10.0549 32.2807 84.505 -33.2993 2.18817 3.35568 3.1281 -2.38542e-015 0 -3.97569e-016 
-8.03811 5.63603 5.56023 -90 0 -0 2.03454 5.0572 -6.07022 4.62265 9.86601 -12.387 4.62262 9.86601 -12.387 9.68567 -1.97294 0.335198 0.390236 14.4835 -0.0362022 4.40956 -21.021 25.0992 -65.9066 17.4466 -45.9371 -19.5304 -0.70022 0.123159 4.80531e-007 1.40663e-007 1.84396e-007 -1.24938e-006 -3.65725e-007 -4.79429e-007 3.84424e-007 1.12531e-007 1.47516e-007 -1.24938e-006 -3.65725e-007 -4.79429e-007 -1.24938e-006 -3.65725e-007 -4.79429e-007 -0.0146068 -9.32628e-005 -1.45484e-006 -1.24938e-006 -3.65664e-007 -4.79474e-007 -1.24938e-006 -3.65725e-007 -4.79429e-007 -0.0187418 -0.00117953 6.28375e-005 -9.37865e-007 -1.99519e-006 7.88597e-008 -1.24938e-006 -3.65725e-007 -4.79429e-007 -0.0122618 -0.00324854 0.000671652 -1.2494e-006 -3.65667e-007 -4.79432e-007 -1.24938e-006 -3.65725e-007 -4.79429e-007 3.84424e-007 1.12531e-007 1.47516e-007 -1.24938e-006 -3.65725e-007 -4.79429e-007 -106.304 -63.7915 -164.233 -14.0918 -11.9059 -15.3895 30.5781 23.3444 -0.19583 21.7786 51.3266 -45.865 -3.18055e-015 0 -3.97569e-016 1.64028e-007 3.8852e-008 -1.30834e-007 -3.18055e-015 -4.77083e-015 1.59028e-015 -3.18055e-015 0 -3.97569e-016 0.0150164 -9.91439e-005 -6.52793e-007 6.36111e-015 6.36111e-015 -1.98785e-015 -3.18055e-015 0 -3.97569e-016 0.0189895 -0.00119229 -6.18119e-005 1.76556e-031 1.59028e-015 -6.36111e-015 -3.18055e-015 0 -3.97569e-016 0.0122812 -0.00324809 -0.000673447 -6.36111e-015 3.18055e-015 1.59028e-015 -3.18055e-015 0 -3.97569e-016 1.64028e-007 3.8852e-008 -1.30834e-007 -3.18055e-015 -4.77083e-015 1.59028e-015 -7.17936 -16.0932 0.350906 57.399 23.8198 -85.2593 12.1302 33.6264 13.2953 -1.21089e-006 -1.25632e-006 -1.50082e-007 5.60355 7.8047 9.27641 11.4031 78.3425 -12.6577 2.24635 3.1518 2.94215 5.50978e-007 6.53385e-006 7.07682e-006 
-8.04246 5.63563 6.42782 -90 0 -0 2.1276 4.40793 -6.38859 4.75534 8.54735 -12.992 4.75534 8.54735 -12.992 10.1965 -1.96987 0.352785 0.68235 14.0969 -0.0609575 2.08241 -18.8167 24.8458 -65.2707 16.9214 -45.1374 -18.7362 -0.875536 0.124921 -9.61781e-008 -2.8315e-008 -3.65392e-008 -2.88534e-007 -8.4945e-008 -1.09618e-007 2.88534e-007 8.4945e-008 1.09618e-007 -2.88534e-007 -8.4945e-008 -1.09618e-007 -2.88534e-007 -8.4945e-008 -1.09618e-007 -0.0146187 -9.00525e-005 3.2027e-006 -2.88535e-007 -8.4931e-008 -1.09628e-007 -2.88534e-007 -8.4945e-008 -1.09618e-007 -0.0187389 -0.00116938 5.8022e-005 -2.88536e-007 -8.49269e-008 -1.09629e-007 -2.88534e-007 -8.4945e-008 -1.09618e-007 -0.0122687 -0.00324761 0.00067683 -2.88539e-007 -8.49317e-008 -1.09618e-007 -2.88534e-007 -8.4945e-008 -1.09618e-007 2.88534e-007 8.4945e-008 1.09618e-007 -2.88534e-007 -8.4945e-008 -1.09618e-007 -104.98 -65.8245 -161.046 -14.3807 -11.7562 -15.3801 31.2706 24.3243 -0.199465 17.7643 51.9431 -43.1264 6.01741e-007 -3.11401e-006 4.29061e-008 -6.56825e-007 -1.61388e-007 5.20024e-007 -6.01741e-007 3.11401e-006 -4.29061e-008 6.01741e-007 -3.11401e-006 4.29061e-008 0.0149852 -8.98477e-005 -1.32288e-007 -3.18055e-015 7.95139e-015 -7.95139e-016 6.01741e-007 -3.11401e-006 4.29061e-008 0.0190114 -0.00119334 -6.35164e-005 3.08973e-031 -3.18055e-015 5.56597e-015 6.01741e-007 -3.11401e-006 4.29061e-008 0.0122575 -0.00324238 -0.000674253 -8.82781e-032 -3.18055e-015 -1.59028e-015 6.01741e-007 -3.11401e-006 4.29061e-008 -6.56825e-007 -1.61388e-007 5.20024e-007 -6.01741e-007 3.11401e-006 -4.29061e-008 -7.03896 -15.446 0.690035 57.4373 23.8293 -85.2507 12.524 33.4498 13.6389 -7.1746e-007 -4.49159e-007 -5.04181e-008 5.57378 9.09783 9.13014 9.25989 76.781 -10.6238 2.25025 3.15891 2.9419 -1.06846e-007 -1.63337e-007 3.66107e-006 
-8.04693 5.63522 7.29527 -90 0 -0 2.21408 3.75649 -6.70625 4.86812 7.22495 -13.594 4.86814 7.22495 -13.594 10.7076 -1.96681 0.370329 0.974093 13.7099 -0.0836489 -0.218912 -16.592 24.6884 -64.6284 16.4043 -44.3332 -17.9399 -1.04171 0.126618 -2.07618e-007 1.56754e-006 -5.7453e-007 -3.18055e-015 6.36111e-015 6.36111e-015 -3.18055e-015 6.36111e-015 3.18055e-015 -6.36111e-015 0 -0 -3.18055e-015 6.36111e-015 6.36111e-015 -0.014612 -8.56136e-005 -1.23358e-006 -2.09454e-007 1.5676e-006 -5.7433e-007 -3.18055e-015 6.36111e-015 6.36111e-015 -0.018782 -0.00117606 5.99538e-005 -2.09982e-007 1.56749e-006 -5.74263e-007 -3.18055e-015 6.36111e-015 6.36111e-015 -0.0122436 -0.00323866 0.000674661 -2.09163e-007 1.5672e-006 -5.74272e-007 -3.18055e-015 6.36111e-015 6.36111e-015 -3.18055e-015 6.36111e-015 3.18055e-015 -6.36111e-015 0 -0 -103.239 -67.8276 -157.45 -14.6694 -11.6067 -15.369 31.935 25.3405 -0.203624 13.64 52.4394 -40.2785 -3.76523e-007 2.57101e-007 -1.83112e-006 -2.01938e-006 -1.60906e-007 -5.39036e-007 -3.76523e-007 2.57101e-007 -1.83112e-006 -3.76523e-007 2.57101e-007 -1.83112e-006 0.0149899 -8.30106e-005 2.67418e-007 -3.76562e-007 2.56862e-007 -1.83115e-006 -3.76523e-007 2.57101e-007 -1.83112e-006 0.018967 -0.00118827 -5.74059e-005 -3.7659e-007 2.56801e-007 -1.83116e-006 -3.76523e-007 2.57101e-007 -1.83112e-006 0.0122648 -0.00324407 -0.000677801 -3.76607e-007 2.56911e-007 -1.83113e-006 -3.76523e-007 2.57101e-007 -1.83112e-006 -2.01938e-006 -1.60906e-007 -5.39036e-007 -3.76523e-007 2.57101e-007 -1.83112e-006 -6.90287 -14.7966 1.02673 57.4749 23.838 -85.2407 12.9181 33.2751 13.9835 -8.32279e-007 -1.11865e-006 -3.79542e-006 5.54614 10.3932 8.98503 7.55902 75.202 -9.03167 2.25434 3.16632 2.94163 3.12109e-006 -4.10366e-006 1.0295e-005 
-8.05152 5.63481 8.16258 -90 0 -0 2.29396 3.10333 -7.02319 4.96111 5.89977 -14.1936 4.96111 5.89978 -14.1936 11.2195 -1.96335 0.387735 1.26538 13.3226 -0.104293 -2.49863 -14.3538 24.6249 -63.9798 15.8956 -43.5245 -17.1418 -1.19886 0.128242 1.15517e-006 3.42146e-007 4.33537e-007 -0 0 6.36111e-015 1.92528e-007 5.70243e-008 7.22561e-008 -3.18055e-015 1.59028e-014 3.18055e-015 -0 0 6.36111e-015 -0.0146388 -9.32134e-005 -8.15653e-007 -3.18055e-015 -9.54166e-015 9.54166e-015 -0 0 6.36111e-015 -0.0187174 -0.00117432 6.68667e-005 -1.59028e-014 -6.36111e-015 -1.27222e-014 -0 0 6.36111e-015 -0.0122337 -0.00324164 0.000674939 3.18055e-015 3.18055e-015 6.36111e-015 -0 0 6.36111e-015 1.92528e-007 5.70243e-008 7.22561e-008 -3.18055e-015 1.59028e-014 3.18055e-015 -100.971 -69.7845 -153.335 -14.958 -11.4572 -15.3575 32.5696 26.3921 -0.208387 9.42738 52.8085 -37.3425 -6.36111e-015 -4.77083e-015 4.77083e-015 -6.56999e-007 -1.72859e-007 5.13796e-007 0 0 -0 -6.36111e-015 -4.77083e-015 4.77083e-015 0.0150075 -9.26991e-005 4.02318e-006 1.76556e-031 3.18055e-015 -3.18055e-015 -6.36111e-015 -4.77083e-015 4.77083e-015 0.0190065 -0.00119286 -6.16137e-005 3.18055e-015 1.59028e-015 -4.77083e-015 -6.36111e-015 -4.77083e-015 4.77083e-015 0.0122469 -0.00324168 -0.000676817 -6.36111e-015 -4.77083e-015 7.95139e-016 -6.36111e-015 -4.77083e-015 4.77083e-015 -6.56999e-007 -1.72859e-007 5.13796e-007 0 0 -0 -6.77076 -14.1474 1.36118 57.5127 23.8473 -85.2316 13.3126 33.1021 14.3289 -2.86841e-006 -1.79994e-006 -2.05129e-007 5.52062 11.689 8.84092 6.17732 73.6115 -7.75807 2.25852 3.17408 2.94136 3.57793e-006 2.95889e-006 3.75032e-006 
